<?xml version="1.0" encoding="UTF-8"?>
<svg id="Layer_1" data-name="Layer 1" xmlns="http://www.w3.org/2000/svg"
  xmlns:xlink="http://www.w3.org/1999/xlink" viewBox="0 0 250 250">
  <defs>
    <style>
      .cls-1 {
      fill: url(#linear-gradient);
      }

      .cls-2 {
      fill: #fff;
      }

      .cls-3 {
      fill: none;
      stroke: #fff;
      stroke-linecap: round;
      stroke-linejoin: round;
      stroke-width: 4px;
      }
    </style>
    <linearGradient id="linear-gradient" x1="5.86" y1="5.86" x2="294.14" y2="294.14"
      gradientUnits="userSpaceOnUse">
      <!-- <stop offset="0" stop-color="#3b82f6" />
      <stop offset="1" stop-color="#1e40af" /> -->
      2563EB
      <stop offset="0" stop-color="#2563EB" />
      <stop offset="1" stop-color="#2563EB" />
    </linearGradient>
  </defs>
  <g id="Layer_2" data-name="Layer 2">
    <path class="cls-1"
      d="M230,0H20C8.96,0,0,8.95,0,20v210c0,11.05,8.96,20,20,20h210c11.05,0,20-8.95,20-20V20c0-11.05-8.95-20-20-20Z" />
    <g id="icon" transform="translate(-25,-25)">
      <path class="cls-2"
        d="m213.84,121.14v31.81l-4-2.31v-28.34l-24.53-14.17v-4.61l27.53,15.89c.62.36,1,1.02,1,1.73Z" />
      <path class="cls-2"
        d="m178.92,213.38l-27.5,15.88c-.31.18-.66.27-1,.27s-.7-.09-1-.27l-27.93-16.12,4.01-2.31,24.92,14.39,24.5-14.15,4,2.31Z" />
      <path class="cls-2"
        d="m115.52,103.52v4.61l-24.53,14.17v27.86l-4,2.31v-31.33c0-.71.38-1.37,1-1.73l27.53-15.89Z" />
      <path class="cls-2"
        d="m185.28,91.16c0-.08-.02-.15-.04-.22-.04-.16-.11-.32-.2-.48-.19-.33-.46-.59-.78-.76l-32.84-18.96c-.62-.36-1.39-.36-2,0l-32.88,18.98c-.31.17-.57.42-.75.74-.09.16-.16.32-.2.48-.02.07-.04.14-.04.22-.03.1-.03.2-.03.3v37.99c0,.71.38,1.37,1,1.73l32.78,18.92s.08.05.12.07c.05.03.11.06.16.08.1.05.21.09.32.12.09.03.17.04.26.05.08.01.17.02.26.02s.18-.01.26-.02c.08-.01.17-.02.25-.05.22-.05.42-.15.61-.27l32.77-18.92c.62-.36,1-1.02,1-1.73v-37.99c0-.1,0-.2-.03-.3Zm-34.86-16.38l28.89,16.68-28.89,16.69-28.9-16.69,28.9-16.68Zm-2,70.2l-28.9-16.69v-33.37l28.9,16.69v33.37Zm32.89-16.69l-28.89,16.68v-33.36l28.89-16.69v33.37Z" />
      <path class="cls-2"
        d="m145.79,158.82c-.18-.32-.44-.57-.75-.74l-32.88-18.99c-.62-.35-1.38-.35-2,0l-19.17,11.07-4,2.31-9.71,5.61c-.09.04-.17.1-.24.16-.07.05-.13.11-.19.17-.13.12-.23.26-.32.41-.18.32-.27.66-.27,1v37.99c0,.71.39,1.37,1,1.73l32.78,18.92c.19.12.39.21.61.27.08.03.17.04.25.05s.17.02.26.02.17-.01.26-.02c.09-.01.17-.02.26-.05.09-.02.18-.05.26-.09.08-.03.15-.07.22-.11.04-.02.08-.05.12-.07l9.21-5.32,4.01-2.31,19.56-11.29c.62-.36,1-1.02,1-1.73v-37.99c0-.34-.09-.68-.27-1Zm-36.63,54.52l-28.9-16.69v-33.37l28.9,16.68v33.38Zm2-36.84l-28.9-16.68,7.68-4.44.17-.1,21.05-12.14,28.9,16.68-28.9,16.68Zm30.9,20.15l-28.9,16.69v-33.38l28.9-16.68v33.37Z" />
      <path class="cls-2"
        d="m223.47,158.82c-.09-.15-.19-.29-.32-.41-.06-.06-.12-.12-.19-.17-.08-.06-.16-.12-.24-.16l-8.88-5.13-24-13.86c-.62-.35-1.38-.35-2,0l-32.88,18.99c-.31.17-.57.42-.75.74-.18.32-.27.66-.27,1v37.99c0,.71.38,1.37,1,1.73l19.98,11.53,4,2.31,8.8,5.08s.08.05.12.07c.07.04.14.08.22.11.08.04.17.07.26.09.09.03.17.04.26.05.09.01.17.02.26.02s.18-.01.26-.02.17-.02.25-.05c.22-.06.42-.15.61-.27l32.78-18.92c.61-.36,1-1.02,1-1.73v-37.99c0-.34-.09-.68-.27-1Zm-36.63,54.52l-28.9-16.69v-33.37l28.9,16.68v33.38Zm2-36.84l-28.9-16.68,28.9-16.68,21.88,12.62.17.1,6.85,3.96-28.9,16.68Zm30.9,20.15l-28.9,16.69v-33.38l28.9-16.68v33.37Z" />
    </g>
  </g>
</svg>