<?xml version="1.0" encoding="UTF-8"?>
<svg xmlns="http://www.w3.org/2000/svg" width="140" height="140" viewBox="0 0 140 140">
  <g id="Layer_3" data-name="Layer 3">
    <g>
      <rect x="3" y="3" width="134" height="134" rx="17.7729" ry="17.7729" fill="#1f2937"/>
      <path d="M119.2269,6c8.1459,0,14.7731,6.6272,14.7731,14.7731v98.4539c0,8.1459-6.6272,14.7731-14.7731,14.7731H20.7731c-8.1459,0-14.7731-6.6272-14.7731-14.7731V20.7731c0-8.1459,6.6272-14.7731,14.7731-14.7731h98.4538M119.2269,0H20.7731C9.3004,0,0,9.3004,0,20.7731v98.4539c0,11.4727,9.3004,20.7731,20.7731,20.7731h98.4538c11.4727,0,20.7731-9.3004,20.7731-20.7731V20.7731c0-11.4727-9.3004-20.7731-20.7731-20.7731h0Z" fill="#e4b63e"/>
    </g>
    <circle cx="119.0956" cy="20.751" r="7.7778" fill="#30ff2a"/>
  </g>
  <g id="Layer_1" data-name="Layer 1">
    <g>
      <polyline points="89.4047 90.7705 93.9999 95.3658 105.3488 82.8875" fill="none" stroke="#fff" stroke-linecap="round" stroke-linejoin="round" stroke-width="3"/>
      <g>
        <path d="M39.067,53.2052v-12.0806c0-1.8382,1.4902-3.3284,3.3284-3.3284h11.1619" fill="none" stroke="#fff" stroke-linecap="round" stroke-linejoin="round" stroke-width="3"/>
        <path d="M100.3837,101.6799v7.3552c0,1.8223-1.4773,3.2996-3.2996,3.2996h-54.6886c-1.8382,0-3.3284-1.4902-3.3284-3.3284v-35.1893" fill="none" stroke="#fff" stroke-linecap="round" stroke-linejoin="round" stroke-width="3"/>
        <path d="M85.5104,37.7962h11.5449c1.8382,0,3.3284,1.4902,3.3284,3.3284v40.9927" fill="none" stroke="#fff" stroke-linecap="round" stroke-linejoin="round" stroke-width="3"/>
        <path d="M85.5104,34.1649v3.7412c0,3.6746-2.9823,6.6569-6.6569,6.6569h-18.6392c-3.6746,0-6.6569-2.9823-6.6569-6.6569v-3.7412c0-.366.2997-.6657.6657-.6657h7.2692c.0267-4.4134,3.6148-7.9882,8.0415-7.9882,4.4203,0,8.0149,3.5748,8.0415,7.9882h7.2692c.3663,0,.6657.2997.6657.6657Z" fill="none" stroke="#fff" stroke-linecap="round" stroke-linejoin="round" stroke-width="3"/>
      </g>
      <g>
        <circle cx="93.8427" cy="91.899" r="11.7652" fill="none" stroke="#fff" stroke-linecap="round" stroke-linejoin="round" stroke-width="3"/>
        <line x1="102.162" y1="100.2183" x2="114.1592" y2="112.2155" fill="none" stroke="#fff" stroke-linecap="round" stroke-linejoin="round" stroke-width="3"/>
      </g>
      <g>
        <text transform="translate(29.3708 67.5826)" fill="#fff" font-family="SkylineSans-Black, &apos;SkylineSans Black&apos;" font-size="12.3547" font-weight="800"><tspan x="0" y="0">V 2.1</tspan></text>
        <rect x="22.1515" y="53.817" width="41.3449" height="20" rx="3" ry="3" fill="none" stroke="#fff" stroke-linecap="round" stroke-linejoin="round" stroke-width="3"/>
      </g>
      <line x1="70.1775" y1="53.817" x2="89.843" y2="53.817" fill="none" stroke="#fff" stroke-linecap="round" stroke-linejoin="round" stroke-width="3"/>
      <line x1="73.4964" y1="63.817" x2="89.6279" y2="63.817" fill="none" stroke="#fff" stroke-linecap="round" stroke-linejoin="round" stroke-width="3"/>
      <line x1="70.1775" y1="73.817" x2="89.6279" y2="73.817" fill="none" stroke="#fff" stroke-linecap="round" stroke-linejoin="round" stroke-width="3"/>
      <line x1="49.8179" y1="84.2421" x2="84.9143" y2="84.2421" fill="none" stroke="#fff" stroke-linecap="round" stroke-linejoin="round" stroke-width="3"/>
      <line x1="49.8179" y1="94.264" x2="70.5371" y2="94.264" fill="none" stroke="#fff" stroke-linecap="round" stroke-linejoin="round" stroke-width="3"/>
    </g>
  </g>
</svg>